# xmcd
#
# Track frame offsets:
#	150
#	11650
#	24747
#	34137
#	47662
#	59597
#	71167
#	82955
#	96440
#	108612
#	119895
#	131377
#	145540
#	158957
#	170752
#
# Disc length: 2449
#
# Revision: 3
# Processed by: cddbd v1.5.1PL0 Copyright (c) Steve Scherf et al.
# Submitted via: audiograbber 1.83.01
# Normalized: r2:DSETVAR1
#
DISCID=da098f0f
DTITLE=Various Artist - Soul Classics 1965 - (Volume 5)
DYEAR=1999
DGENRE=Soul
TTITLE0=Wilson Pickett - In The Midnight Hour
TTITLE1=Otis Redding - I've Been Loving You Too Long (To Stop Now)
TTITLE2=Booker T. and The MG's - Boot-Leg
TTITLE3=The Astors - Candy
TTITLE4=Carla Thomas - Comfort Me
TTITLE5=Solomon Burke - Got To Get You Off My Mind
TTITLE6=Ester Phillips - And I Love Him
TTITLE7=Don Covay - See Saw
TTITLE8=Otis Redding - Mr. Pitiful
TTITLE9=Barbara Lewis - Baby, I'm Yours
TTITLE10=Wilson  Pickett - Don't Fight It
TTITLE11=Sonny and Cher - I Got You Babe
TTITLE12=Solomon Burke - Someone Is Watching
TTITLE13=Rufus Thomas - Willy Nilly
TTITLE14=Mad Lads - Don't Have To Shop Around
EXTD=
EXTT0=
EXTT1=
EXTT2=
EXTT3=
EXTT4=
EXTT5=
EXTT6=
EXTT7=
EXTT8=
EXTT9=
EXTT10=
EXTT11=
EXTT12=
EXTT13=
EXTT14=
PLAYORDER=
